{
  "asset": {
    "generator": "glTF-Transform v4.4.1",
    "version": "2.0"
  },
  "accessors": [
    {
      "type": "VEC3",
      "componentType": 5126,
      "count": 43232,
      "max": [
        0.4081360101699829,
        0.23317499458789825,
        0
      ],
      "min": [
        -0.40901198983192444,
        -0.5437690019607544,
        -0.9074689745903015
      ],
      "bufferView": 0,
      "byteOffset": 0
    },
    {
      "type": "VEC3",
      "componentType": 5126,
      "count": 43232,
      "bufferView": 0,
      "byteOffset": 12
    },
    {
      "type": "VEC2",
      "componentType": 5126,
      "count": 43232,
      "bufferView": 0,
      "byteOffset": 24
    },
    {
      "type": "SCALAR",
      "componentType": 5123,
      "count": 151050,
      "bufferView": 1,
      "byteOffset": 0
    }
  ],
  "bufferViews": [
    {
      "buffer": 0,
      "byteOffset": 0,
      "byteLength": 1383424,
      "byteStride": 32,
      "target": 34962
    },
    {
      "buffer": 0,
      "byteOffset": 1383424,
      "byteLength": 302100,
      "target": 34963
    }
  ],
  "samplers": [
    {
      "magFilter": 9729,
      "minFilter": 9987,
      "wrapS": 10497,
      "wrapT": 10497
    }
  ],
  "textures": [
    {
      "source": 1,
      "sampler": 0
    },
    {
      "source": 0,
      "sampler": 0
    },
    {
      "source": 2,
      "sampler": 0
    }
  ],
  "images": [
    {
      "name": "texture_pbr_20250901_normal",
      "mimeType": "image/png",
      "uri": "normal_1.png"
    },
    {
      "name": "texture_pbr_20250901",
      "mimeType": "image/png",
      "uri": "baseColor_1.png"
    },
    {
      "name": "texture_pbr_20250901_metallic-texture_pbr_20250901_roughness",
      "mimeType": "image/png",
      "uri": "metallicRoughness_1.png"
    }
  ],
  "buffers": [
    {
      "uri": "kaira-cat.bin",
      "byteLength": 1685524
    }
  ],
  "materials": [
    {
      "name": "Material.001",
      "doubleSided": true,
      "pbrMetallicRoughness": {
        "baseColorTexture": {
          "index": 0
        },
        "metallicRoughnessTexture": {
          "index": 2
        }
      },
      "normalTexture": {
        "index": 1
      },
      "extensions": {
        "KHR_materials_specular": {
          "specularColorFactor": [
            2,
            2,
            2
          ]
        }
      }
    }
  ],
  "meshes": [
    {
      "name": "material",
      "primitives": [
        {
          "attributes": {
            "POSITION": 0,
            "NORMAL": 1,
            "TEXCOORD_0": 2
          },
          "mode": 4,
          "material": 0,
          "indices": 3
        }
      ]
    }
  ],
  "nodes": [
    {
      "name": "material",
      "rotation": [
        0.7071068286895752,
        0,
        0,
        0.7071068286895752
      ],
      "mesh": 0
    }
  ],
  "scenes": [
    {
      "name": "convert",
      "nodes": [
        0
      ]
    }
  ],
  "scene": 0,
  "extensionsUsed": [
    "KHR_materials_specular"
  ]
}